<svg width="75" height="70" viewBox="0 0 75 70" fill="none" xmlns="http://www.w3.org/2000/svg">
<path d="M74.0224 26C74.0224 42.8447 54.4481 56.5 37.8341 56.5C21.2201 56.5 7.75173 42.8447 7.75173 26C7.75173 9.15532 6.91866 1 23.5327 1C40.1467 1 74.0224 9.15532 74.0224 26Z" fill="#EAEAEA"/>
<path d="M34.9014 29C34.0795 24.6667 52.9599 34 59.8641 26L66.4894 30.5C73.6986 38.5 72.8742 52.3 70.9016 53.5C68.929 54.7 63.3161 46.6058 61.8367 45.1058C57.7271 43.1058 53.9371 40.2 51.1755 41C48.4138 41.8 48.7097 45.6667 49.2029 47.5C47.559 56.6667 46.3042 75.7332 41.1243 67C38.4552 62.5 41.1243 62 44.5763 47.5L34.9014 29Z" fill="#CFCFCF"/>
<path d="M4.8945 28.1058C4.8945 22 2.1555 3.60581 16.7893 3.60581C31.4231 3.60581 40.8947 37.1058 40.8947 37.1058C42.7029 40.2725 44.8399 43.9058 42.8673 45.1058C40.8947 46.3058 38.4289 46.6058 36.9495 45.1058C32.8399 43.1058 23.9302 39.3058 21.1685 40.1058C18.4069 40.9058 14.6559 38.2725 15.1491 40.1058C0.847639 44 14.7429 68.8024 4.8945 64.1058C-1.61813 61 4.8945 45.1058 4.8945 37.1058L4.8945 28.1058Z" fill="#CFCFCF"/>
<path d="M73.1908 25.5C73.1908 42.3447 53.3447 56 36.5 56C19.6553 56 5.99996 42.3447 5.99996 25.5C5.99996 8.65532 5.15531 0.5 22 0.5C38.8447 0.5 73.1908 8.65532 73.1908 25.5Z" fill="#DFDFDF"/>
<path d="M33.5266 28.5C32.6933 24.1667 51.8358 33.5 58.8358 25.5L65.5532 30C72.8625 38 72.0266 51.8 70.0266 53C68.0266 54.2 62.3358 46.1058 60.8358 44.6058C56.6692 42.6058 52.8266 39.7 50.0266 40.5C47.2266 41.3 47.5266 45.1667 48.0266 47C46.36 56.1667 45.0878 75.2332 39.8359 66.5C37.1297 62 39.8358 61.5 43.3358 47L33.5266 28.5Z" fill="#DFDFDF"/>
<path d="M3.10305 27.6058C3.10305 21.5 0.326028 3.10581 15.163 3.10581C30 3.10581 39.6031 36.6058 39.6031 36.6058C41.4364 39.7725 43.6031 43.4058 41.6031 44.6058C39.6031 45.8058 37.1031 46.1058 35.6031 44.6058C31.4364 42.6058 22.4031 38.8058 19.6031 39.6058C16.8031 40.4058 13 37.7725 13.5 39.6058C-0.999995 43.5 13.0881 68.3024 3.10305 63.6058C-3.5 60.5 3.10305 44.6058 3.10306 36.6058L3.10305 27.6058Z" fill="#DFDFDF"/>
<path d="M45.5485 23.487C46.2923 28.2147 42.1014 32.2569 36.1879 32.5155C30.2743 32.7741 24.8775 29.1512 24.1336 24.4235C23.3898 19.6958 27.5807 15.6536 33.4943 15.395C39.4078 15.1364 44.8047 18.7594 45.5485 23.487Z" fill="#EC7F1B"/>
<path d="M44.4527 22.7514C45.1965 27.4791 41.0056 31.5213 35.092 31.7799C29.1785 32.0384 23.7816 28.4155 23.0378 23.6879C22.294 18.9602 26.4849 14.918 32.3984 14.6594C38.312 14.4008 43.7088 18.0237 44.4527 22.7514Z" fill="#ECD71B"/>
<path d="M28.1037 17.8793C30.5037 15.4793 33.437 15.8793 34.6037 16.3793C37.4037 17.1793 38.7704 18.3793 39.1037 18.8793C38.6037 18.546 36.9037 17.8793 34.1037 17.8793C31.3037 17.8793 29.6037 19.2126 29.1037 19.8793C27.7704 20.2126 25.7037 20.2793 28.1037 17.8793Z" fill="#FFF27D" fill-opacity="0.8"/>
<path d="M21.55 4.45717C15.673 5.21253 10.4227 8.88559 9.40759 11.0383C6.52922 15.7762 9.31861 17.208 9.42323 18.2057C9.72673 17.1556 11.2436 15.4479 12.9078 11.9272C15.2176 7.04031 14.7463 13.1407 18.5638 9.1635C26.4859 8.35197 27.427 3.70181 21.55 4.45717Z" fill="#EAEAEA"/>
</svg>
