<svg width="16" height="20" viewBox="0 0 16 20" fill="none" xmlns="http://www.w3.org/2000/svg">
<path d="M7.86 8.38069C7.78031 8.36942 7.69969 8.36942 7.62 8.38069C6.77195 8.34853 5.9682 7.94617 5.37855 7.25861C4.7889 6.57104 4.45952 5.65213 4.46 4.69598C4.46 2.65644 5.92 1.00001 7.74 1.00001C8.59944 0.998325 9.42504 1.37728 10.0388 2.05517C10.6526 2.73305 11.0054 3.65558 11.0211 4.62385C11.0369 5.59213 10.7143 6.52859 10.123 7.23136C9.53165 7.93413 8.71892 8.3469 7.86 8.38069ZM14.48 15.8177C12.6423 17.721 10.236 18.775 7.74 18.77C5.14 18.77 2.78 17.6544 1 15.8177C1.1 14.7585 1.7 13.7218 2.77 12.9105C5.51 10.8597 9.99 10.8597 12.71 12.9105C13.78 13.7218 14.38 14.7585 14.48 15.8177Z" stroke="black" stroke-width="1.5" stroke-linecap="round" stroke-linejoin="round"/>
</svg>
