<svg width="265" height="178" viewBox="0 0 265 178" fill="none" xmlns="http://www.w3.org/2000/svg">
<path d="M265 89C265 138.153 225.153 178 176 178C126.847 178 87 138.153 87 89C87 39.8467 126.847 0 176 0C225.153 0 265 39.8467 265 89Z" fill="#5C5858"/>
<path d="M256 88C256 132.735 219.735 169 175 169C130.265 169 94 132.735 94 88C94 43.2649 130.265 7 175 7C219.735 7 256 43.2649 256 88Z" fill="#878181"/>
<path d="M2 138.967L115.226 110L119.192 125.501L5.9656 154.468L2 138.967Z" fill="#5C5858"/>
<path d="M258 91C258 135.735 221.735 172 177 172C132.265 172 96 135.735 96 91C96 46.2649 132.265 10 177 10C221.735 10 258 46.2649 258 91Z" fill="#6C6868"/>
<path d="M191.854 92.2703C191.854 109.115 172.28 122.77 155.666 122.77C139.052 122.77 125.583 109.115 125.583 92.2703C125.583 75.4256 124.75 67.2703 141.364 67.2703C157.978 67.2703 191.854 75.4256 191.854 92.2703Z" fill="#EAEAEA"/>
<path d="M152.733 95.2703C151.911 90.9369 170.792 100.27 177.696 92.2703L184.321 96.7703C191.53 104.77 190.706 118.57 188.733 119.77C186.761 120.97 181.148 112.876 179.668 111.376C175.559 109.376 171.769 106.47 169.007 107.27C166.245 108.07 166.541 111.937 167.034 113.77C165.391 122.937 164.136 142.003 158.956 133.27C156.287 128.77 158.956 128.27 162.408 113.77L152.733 95.2703Z" fill="#CFCFCF"/>
<path d="M122.726 94.3761C122.726 88.2703 119.987 69.8761 134.621 69.8761C149.255 69.8761 158.726 103.376 158.726 103.376C160.535 106.543 162.672 110.176 160.699 111.376C158.726 112.576 156.261 112.876 154.781 111.376C150.671 109.376 141.762 105.576 139 106.376C136.239 107.176 132.488 104.543 132.981 106.376C118.679 110.27 132.574 135.073 122.726 130.376C116.214 127.27 122.726 111.376 122.726 103.376V94.3761Z" fill="#CFCFCF"/>
<path d="M191.022 91.7703C191.022 108.615 171.176 122.27 154.332 122.27C137.487 122.27 123.832 108.615 123.832 91.7703C123.832 74.9256 122.987 66.7703 139.832 66.7703C156.676 66.7703 191.022 74.9256 191.022 91.7703Z" fill="#DFDFDF"/>
<path d="M151.358 94.7703C150.525 90.4369 169.667 99.7703 176.667 91.7703L183.385 96.2703C190.694 104.27 189.858 118.07 187.858 119.27C185.858 120.47 180.167 112.376 178.667 110.876C174.501 108.876 170.658 105.97 167.858 106.77C165.058 107.57 165.358 111.437 165.858 113.27C164.192 122.437 162.919 141.503 157.667 132.77C154.961 128.27 157.667 127.77 161.167 113.27L151.358 94.7703Z" fill="#DFDFDF"/>
<path d="M120.935 93.8761C120.935 87.7703 118.158 69.3761 132.995 69.3761C147.832 69.3761 157.435 102.876 157.435 102.876C159.268 106.043 161.435 109.676 159.435 110.876C157.435 112.076 154.935 112.376 153.435 110.876C149.268 108.876 140.235 105.076 137.435 105.876C134.635 106.676 130.832 104.043 131.332 105.876C116.832 109.77 130.92 134.573 120.935 129.876C114.332 126.77 120.935 110.876 120.935 102.876V93.8761Z" fill="#DFDFDF"/>
<path d="M163.38 89.7573C164.124 94.485 159.933 98.5272 154.019 98.7858C148.106 99.0444 142.709 95.4215 141.965 90.6938C141.221 85.9661 145.412 81.9239 151.326 81.6653C157.239 81.4067 162.636 85.0296 163.38 89.7573Z" fill="#EC7F1B"/>
<path d="M162.284 89.0217C163.028 93.7494 158.837 97.7915 152.924 98.0501C147.01 98.3087 141.613 94.6858 140.869 89.9581C140.126 85.2304 144.317 81.1883 150.23 80.9297C156.144 80.6711 161.54 84.294 162.284 89.0217Z" fill="#ECD71B"/>
<path d="M145.935 84.1496C148.335 81.7496 151.269 82.1496 152.435 82.6496C155.235 83.4496 156.602 84.6496 156.935 85.1496C156.435 84.8162 154.735 84.1496 151.935 84.1496C149.135 84.1496 147.435 85.4829 146.935 86.1496C145.602 86.4829 143.535 86.5496 145.935 84.1496Z" fill="#FFF27D" fill-opacity="0.8"/>
<path d="M139.382 70.7274C133.505 71.4828 128.254 75.1559 127.239 77.3085C124.361 82.0465 127.15 83.4783 127.255 84.476C127.558 83.4259 129.075 81.7182 130.739 78.1974C133.049 73.3106 132.578 79.411 136.395 75.4338C144.318 74.6222 145.259 69.9721 139.382 70.7274Z" fill="#EAEAEA"/>
<path d="M179.463 50.5662C195.733 46.2065 213.99 61.5796 218.29 77.6274C222.59 93.6753 212.886 110.219 196.615 114.579C180.344 118.938 172.682 121.854 168.382 105.806C164.082 89.7581 163.192 54.9259 179.463 50.5662Z" fill="#EAEAEA"/>
<path d="M193.557 89.991C189.584 91.9065 193.713 71.2538 184.199 66.6554L186.831 59.0911C192.692 50.0571 206.235 47.2817 207.905 48.8765C209.575 50.4713 203.209 57.9878 202.143 59.8051C201.275 64.2923 199.449 68.7052 200.936 71.1657C202.424 73.6262 206.082 72.3396 207.725 71.3888C217.005 70.6041 235.747 66.8813 228.652 74.1451C224.996 77.888 223.822 75.4392 208.923 75.8576L193.557 89.991Z" fill="#CFCFCF"/>
<path d="M200.558 119.516C194.661 121.096 177.602 128.502 173.815 114.367C170.027 100.232 199.934 82.4127 199.934 82.4127C202.525 79.8465 205.481 76.8419 207.151 78.4367C208.821 80.0316 209.749 82.3356 208.683 84.1529C207.814 88.6401 206.45 98.2297 207.937 100.69C209.425 103.151 207.852 107.455 209.495 106.505C216.958 119.311 237.319 99.4697 235.332 110.198C234.017 117.293 216.979 115.116 209.252 117.186L200.558 119.516Z" fill="#CFCFCF"/>
<path d="M179.195 51.4989C195.466 47.1392 213.792 62.7748 218.152 79.0455C222.512 95.3162 212.856 112.041 196.585 116.4C180.315 120.76 172.656 123.687 168.296 107.416C163.936 91.1452 162.924 55.8586 179.195 51.4989Z" fill="#DFDFDF"/>
<path d="M192.359 89.0351C188.389 90.9616 192.45 70.0556 182.91 65.3647L185.518 57.7115C191.354 48.5808 204.9 45.8165 206.577 47.4377C208.254 49.059 201.908 56.6508 200.848 58.4879C199.994 63.0302 198.182 67.4939 199.679 69.9915C201.177 72.489 204.834 71.1985 206.475 70.241C215.761 69.4784 234.507 65.7724 227.431 73.1057C223.785 76.8843 222.601 74.3998 207.689 74.7719L192.359 89.0351Z" fill="#DFDFDF"/>
<path d="M199.369 118.653C193.471 120.234 176.423 127.677 172.583 113.345C168.742 99.014 198.616 81.0677 198.616 81.0677C201.2 78.4773 204.149 75.4441 205.825 77.0653C207.502 78.6866 208.439 81.0238 207.378 82.8609C206.525 87.4032 205.192 97.1123 206.69 99.6098C208.187 102.107 206.628 106.462 208.269 105.505C215.784 118.503 236.095 98.4755 234.142 109.336C232.851 116.518 215.79 114.254 208.062 116.324L199.369 118.653Z" fill="#DFDFDF"/>
<path d="M188.895 71.7318C193.269 69.7897 198.258 72.7916 200.039 78.4367C201.819 84.0818 199.716 90.2325 195.342 92.1746C190.968 94.1167 185.979 91.1148 184.199 85.4696C182.418 79.8245 184.521 73.6739 188.895 71.7318Z" fill="#EC7F1B"/>
<path d="M188.012 71.7318C192.386 69.7897 197.376 72.7916 199.156 78.4367C200.936 84.0818 198.834 90.2325 194.46 92.1746C190.085 94.1167 185.096 91.1148 183.316 85.4696C181.536 79.8245 183.638 73.6739 188.012 71.7318Z" fill="#ECD71B"/>
<path d="M187.435 89.0351C184.495 87.338 186.003 85.1453 186.184 83.889C186.232 80.9773 187.038 79.3466 187.435 78.8952C187.242 79.4645 187.038 81.2791 187.763 83.9837C188.487 86.6883 190.215 87.9853 190.989 88.2957C191.656 89.4973 190.374 90.7321 187.435 89.0351Z" fill="#FFF27D" fill-opacity="0.8"/>
<path d="M171.404 79.2985C170.955 76.9613 173.03 70.8991 177.332 66.824C181.633 62.7489 183.615 67.0597 177.695 72.3859C176.956 77.8491 173.74 72.6438 174.755 77.9528C175.487 81.7778 178.549 86.0123 175.643 85.0785C172.736 84.1447 171.873 84.8224 171.404 79.2985Z" fill="#EAEAEA"/>
<path d="M0.591484 134.967L113.817 106L117.783 121.501L4.55708 150.468L0.591484 134.967Z" fill="#6C6868"/>
</svg>
