<svg width="21" height="16" viewBox="0 0 21 16" fill="none" xmlns="http://www.w3.org/2000/svg">
<path d="M11 3L12 3L12 1L11 1L11 3ZM1 1C0.447715 0.999999 2.6335e-08 1.44771 0 2C-2.6335e-08 2.55228 0.447715 3 1 3L1 1ZM17 1L16 1L16 3L17 3L17 1ZM20 3C20.5523 3 21 2.55229 21 2C21 1.44772 20.5523 1 20 1L20 3ZM11 15L12 15L12 13L11 13L11 15ZM1 13C0.447715 13 5.267e-08 13.4477 0 14C-5.267e-08 14.5523 0.447715 15 1 15L1 13ZM17 13H16V15H17V13ZM20 15C20.5523 15 21 14.5523 21 14C21 13.4477 20.5523 13 20 13V15ZM12 7H11V9H12V7ZM20 9C20.5523 9 21 8.55228 21 8C21 7.44772 20.5523 7 20 7V9ZM6 9L7 9L7 7L6 7L6 9ZM1 7C0.447715 7 5.267e-08 7.44771 0 8C-5.267e-08 8.55228 0.447715 9 1 9L1 7ZM11 1L1 1L1 3L11 3L11 1ZM17 3L20 3L20 1L17 1L17 3ZM14 0V4H16V0H14ZM11 13L1 13L1 15L11 15L11 13ZM17 15H20V13H17V15ZM14 12V16H16V12H14ZM12 9H20V7H12V9ZM6 7L1 7L1 9L6 9L6 7ZM9 10V6H7V10H9Z" fill="black"/>
</svg>
